<svg width="48" height="43" viewBox="0 0 48 43" fill="none" xmlns="http://www.w3.org/2000/svg">
<path d="M29.1881 0.905682L24.4752 7.37337C23.9978 8.02844 24.5145 8.94102 25.3218 8.87064C25.8758 8.8223 26.3127 8.79693 26.5149 8.79693C33.4432 8.79693 39.0576 14.5321 38.8603 21.5042C38.6699 28.2319 34.0283 28.1791 27.2981 28.1791H15.1043C13.9529 28.1791 13.243 26.9221 13.8371 25.9362L16.875 19.5705C17.0777 18.9932 16.3047 18.5871 15.9444 19.0817L0.542678 40.2186C-0.0567188 41.2127 0.659365 42.4802 1.82049 42.4802H25.6457C37.725 42.4802 47.7285 32.7073 47.5661 20.6293C47.4342 10.7613 40.6384 2.47296 31.4837 0.0688184C30.6227 -0.157184 29.7121 0.186732 29.1881 0.905682Z" fill="url(#paint0_linear_6_1890)"/>
<defs>
<linearGradient id="paint0_linear_6_1890" x1="0.325929" y1="21.24" x2="47.5679" y2="21.24" gradientUnits="userSpaceOnUse">
<stop offset="0.0444" stop-color="#079CEC"/>
<stop offset="0.3671" stop-color="#6B81F9"/>
<stop offset="1" stop-color="#A881F3"/>
</linearGradient>
</defs>
</svg>
