<svg width="31" height="13" viewBox="0 0 31 13" fill="none" xmlns="http://www.w3.org/2000/svg">
<g clip-path="url(#clip0_815_19)">
<path d="M27.7974 2.22905C28.1446 1.80946 28.3927 1.25001 28.3182 0.690552C27.7974 0.713862 27.1773 1.0169 26.8053 1.41318C26.4829 1.76284 26.1852 2.3456 26.2596 2.88175C26.8549 2.95168 27.4254 2.64864 27.7974 2.22905M28.3182 3.02161C27.475 2.97499 26.7557 3.46451 26.3589 3.46451C25.962 3.46451 25.342 3.04492 24.6723 3.04492C23.8042 3.06823 23.0105 3.51113 22.5641 4.25707C21.6712 5.72564 22.3161 7.89352 23.2089 9.08236C23.6306 9.66512 24.1514 10.3178 24.8211 10.2945C25.466 10.2712 25.714 9.89823 26.4829 9.89823C27.2517 9.89823 27.475 10.2945 28.1694 10.2712C28.8639 10.2479 29.3103 9.68843 29.732 9.08236C30.228 8.40635 30.4265 7.75365 30.4265 7.73034C30.4017 7.70703 29.0623 7.24082 29.0623 5.79557C29.0375 4.58342 30.104 4.00065 30.1536 3.97734C29.5832 3.13816 28.6407 3.04492 28.3182 3.02161" fill="white"/>
<path d="M3.77711 1.36646C5.61249 1.36646 6.87741 2.55529 6.87741 4.25697C6.87741 5.98195 5.58769 7.17079 3.7275 7.17079H1.7185V10.1779H0.255157V1.36646H3.77711ZM1.7185 6.02857H3.38027C4.64519 6.02857 5.36446 5.37587 5.36446 4.28028C5.36446 3.16137 4.64519 2.53198 3.38027 2.53198H1.6937V6.02857H1.7185V6.02857ZM7.24945 8.38294C7.24945 7.26403 8.16714 6.56471 9.8041 6.47147L11.6891 6.37823V5.88871C11.6891 5.16608 11.1682 4.74649 10.325 4.74649C9.50647 4.74649 9.01042 5.11946 8.88641 5.67891H7.54708C7.62149 4.51338 8.68799 3.65089 10.3746 3.65089C12.0363 3.65089 13.1028 4.46676 13.1028 5.77215V10.2012H11.7635V9.15219H11.7387C11.3419 9.87481 10.4738 10.3177 9.58088 10.3177C8.19194 10.3177 7.24945 9.52516 7.24945 8.38294V8.38294ZM11.6891 7.80017V7.28734L10.0025 7.38058C9.15924 7.4272 8.68799 7.77686 8.68799 8.33632C8.68799 8.89577 9.18404 9.26874 9.92811 9.26874C10.9202 9.26874 11.6891 8.63935 11.6891 7.80017V7.80017ZM14.343 12.5788V11.5066C14.4422 11.5299 14.6902 11.5299 14.7894 11.5299C15.4343 11.5299 15.7815 11.2734 16.0047 10.6208C16.0047 10.5974 16.1287 10.2245 16.1287 10.2245L13.6485 3.79075H15.1614L16.8976 9.03563H16.9224L18.6586 3.79075H20.1467L17.5921 10.5741C16.9968 12.1359 16.3271 12.6255 14.9134 12.6255C14.8142 12.6022 14.467 12.6022 14.343 12.5788Z" fill="white"/>
</g>
<defs>
<clipPath id="clip0_815_19">
<rect width="29.8375" height="11.935" fill="white" transform="translate(0.261501 0.690552)"/>
</clipPath>
</defs>
</svg>
