<svg width="5" height="7" viewBox="0 0 5 7" fill="none" xmlns="http://www.w3.org/2000/svg">
<path fill-rule="evenodd" clip-rule="evenodd" d="M1.07126 2.60195L3.38519 0.210984C3.49192 0.11491 3.62442 0.0516906 3.76662 0.029002C3.90881 0.00631343 4.05457 0.025132 4.18621 0.0831726C4.31784 0.141213 4.42969 0.235978 4.50815 0.355961C4.58662 0.475943 4.62834 0.61598 4.62824 0.759066V5.71664C4.62834 5.85972 4.58662 5.99976 4.50815 6.11974C4.42969 6.23972 4.31784 6.33449 4.18621 6.39253C4.05457 6.45057 3.90881 6.46939 3.76662 6.4467C3.62442 6.42401 3.49192 6.36079 3.38519 6.26472L1.07126 3.87375C0.982081 3.79321 0.910824 3.69503 0.862064 3.58553C0.813304 3.47602 0.788116 3.3576 0.788116 3.23785C0.788116 3.11811 0.813304 2.99968 0.862064 2.89017C0.910824 2.78067 0.982081 2.68249 1.07126 2.60195Z" fill="#8680F6"/>
</svg>
