<svg width="22" height="22" viewBox="0 0 22 22" fill="none" xmlns="http://www.w3.org/2000/svg">
<path d="M10.141 2.17203C10.5219 1.14253 11.978 1.14253 12.359 2.17203L14.2551 7.29616C14.3749 7.61984 14.6301 7.87503 14.9537 7.9948L20.0779 9.8909C21.1074 10.2718 21.1074 11.728 20.0779 12.1089L14.9537 14.005C14.6301 14.1248 14.3749 14.38 14.2551 14.7036L12.359 19.8278C11.978 20.8573 10.5219 20.8573 10.141 19.8278L8.24489 14.7036C8.12512 14.38 7.86993 14.1248 7.54626 14.005L2.42212 12.1089C1.39262 11.728 1.39262 10.2719 2.42212 9.8909L7.54626 7.9948C7.86993 7.87503 8.12512 7.61984 8.24489 7.29617L10.141 2.17203Z" stroke="#525270" stroke-width="2" stroke-linejoin="round"/>
</svg>
