<svg width="17" height="20" viewBox="0 0 17 20" fill="none" xmlns="http://www.w3.org/2000/svg">
<path d="M2.79624 6.19727H13.8203C14.1006 6.19723 14.3777 6.25783 14.6324 6.37489C14.8872 6.49196 15.1136 6.66273 15.2962 6.87549C15.4787 7.08826 15.6131 7.33799 15.6902 7.60756C15.7672 7.87713 15.785 8.16017 15.7424 8.43727L14.5222 16.3628C14.4163 17.0516 14.0673 17.6797 13.5383 18.1334C13.0094 18.5871 12.3355 18.8364 11.6386 18.8362H4.97694C4.28024 18.8361 3.60657 18.5867 3.07783 18.1331C2.54908 17.6794 2.20019 17.0514 2.0943 16.3628L0.874156 8.43727C0.831542 8.16017 0.849353 7.87713 0.92637 7.60756C1.00339 7.33799 1.13779 7.08826 1.32035 6.87549C1.50292 6.66273 1.72934 6.49196 1.98409 6.37489C2.23883 6.25783 2.51588 6.19723 2.79624 6.19727Z" stroke="white" stroke-width="1.45834" stroke-linecap="round" stroke-linejoin="round"/>
<path d="M5.39062 9.11372V4.25261C5.39062 3.47906 5.69792 2.73719 6.2449 2.19021C6.79188 1.64323 7.53375 1.33594 8.3073 1.33594C9.08084 1.33594 9.82271 1.64323 10.3697 2.19021C10.9167 2.73719 11.224 3.47906 11.224 4.25261V9.11372" stroke="white" stroke-width="1.45834" stroke-linecap="round" stroke-linejoin="round"/>
</svg>
