<svg width="12" height="12" viewBox="0 0 12 12" fill="none" xmlns="http://www.w3.org/2000/svg">
<path d="M0 5.99782C0 5.84606 0.0834527 5.74266 0.248682 5.69097C0.917945 5.47917 1.58554 5.26904 2.2548 5.05724C2.5886 4.95217 2.92573 4.85044 3.25786 4.7387C4.00723 4.48688 4.50459 3.98323 4.74659 3.23109C5.06537 2.23714 5.37747 1.23985 5.69457 0.245894C5.77135 0.00407661 6.0267 -0.0759734 6.20695 0.0807913C6.2687 0.134158 6.29207 0.207537 6.31544 0.282584C6.54242 1.00137 6.77107 1.72015 6.99805 2.43893C7.09819 2.75413 7.18164 3.07433 7.30181 3.38119C7.57552 4.08329 8.0879 4.53858 8.80723 4.76372C9.76523 5.06391 10.7216 5.36743 11.6796 5.66929C11.7063 5.67762 11.7346 5.68596 11.7613 5.69597C11.9149 5.74767 12 5.8594 12 6.00116C12 6.14291 11.9132 6.25799 11.7613 6.30635C11.1672 6.4948 10.5713 6.68325 9.97719 6.87004C9.57663 6.99678 9.17441 7.11853 8.77552 7.24861C8.00278 7.50043 7.48874 8.01408 7.2434 8.79124C6.93296 9.76685 6.6242 10.7425 6.31544 11.7197C6.25702 11.9065 6.16022 11.9966 6.00501 11.9999C5.84812 12.0032 5.73964 11.9132 5.67955 11.7214C5.36578 10.7308 5.05869 9.73683 4.73825 8.74788C4.48957 7.98073 3.96384 7.48709 3.19944 7.2436C2.22309 6.93341 1.24506 6.62655 0.268709 6.31802C0.0801139 6.25465 0 6.15792 0 5.99782Z" fill="#FEA500"/>
</svg>
